<?xml version="1.0" encoding="UTF-8"?>
<svg version="1.1" viewBox="0 0 16 16" xmlns="http://www.w3.org/2000/svg">
    <title>Warning icon sml / purple</title>
    <desc>Created with Sketch.</desc>
    <g fill="none" fill-rule="evenodd">
        <g transform="translate(-18 -20)" fill="#6240AF">
            <g transform="translate(10 12)">
                <path d="m16 21.795c-0.552 0-1-0.449-1-1.0022 0-0.55323 0.448-1.0022 1-1.0022s1 0.449 1 1.0022c0 0.55323-0.448 1.0022-1 1.0022zm-0.8-7.4165h1.6v4.8107h-1.6v-4.8107zm8.716 8.4612l-7.2-14.432c-0.2712-0.54361-1.1608-0.54361-1.432 0l-7.2 14.432c-0.1232 0.24855-0.1104 0.54361 0.0352 0.78014 0.1464 0.23572 0.4032 0.38005 0.6808 0.38005h14.4c0.2776 0 0.5344-0.14432 0.6808-0.38005 0.1456-0.23653 0.1584-0.53158 0.0352-0.78014z"/>
            </g>
        </g>
    </g>
</svg>
