<svg xmlns="http://www.w3.org/2000/svg" width="100" height="41"><g fill="none" fill-rule="evenodd"><path fill="#FFF" d="M36.76 40.23c-2.32 0-3.9-.9-5.04-2.15l1.9-1.92c.9 1 2.04 1.52 3.33 1.52 1.4 0 2.09-.63 2.09-1.6 0-.72-.3-1.25-1.54-1.42l-1.31-.17c-2.8-.36-4.07-1.73-4.07-3.95 0-2.38 1.86-4.03 4.98-4.03 2 0 3.51.66 4.6 1.86l-1.92 1.94a3.47 3.47 0 0 0-2.85-1.25c-1.3 0-1.92.49-1.92 1.29 0 .91.47 1.25 1.58 1.42l1.3.21c2.72.44 4.03 1.65 4.03 3.93 0 2.55-1.86 4.32-5.16 4.32zM48.64 40h-1.67C45.03 40 44 39 44 37.1V32.2h-1.4v-2.19h.7c.76 0 .99-.38.99-1.06v-1.63h2.53v2.7h1.97v2.18h-1.97v5.6h1.82V40zm4.32 0h-2.81v-9.98h2.81v2.17h.1c.22-1.1.98-2.16 2.54-2.16h.5v2.62h-.7c-1.64 0-2.44.36-2.44 1.52V40zm8.33.23c-3.06 0-4.79-2.03-4.79-5.23 0-3.15 1.67-5.2 4.68-5.2 3.3 0 4.63 2.4 4.63 5.09v.84h-6.4v.15c0 1.3.7 2.14 2.2 2.14 1.18 0 1.83-.55 2.45-1.2l1.41 1.76a5.4 5.4 0 0 1-4.18 1.65zm-.06-8.36c-1.12 0-1.82.82-1.82 2.05v.15h3.5v-.17c0-1.21-.56-2.03-1.68-2.03zM76.13 40h-1.55c-1 0-1.73-.68-1.9-1.75h-.11c-.3 1.3-1.41 1.98-2.93 1.98-2 0-3.1-1.18-3.1-2.9 0-2.12 1.64-3.13 4.28-3.13h1.57v-.62c0-.97-.47-1.58-1.65-1.58-1.12 0-1.7.57-2.15 1.18l-1.67-1.48c.8-1.18 1.94-1.9 4.03-1.9 2.81 0 4.26 1.29 4.26 3.64v4.38h.93V40zm-5.45-1.73c.94 0 1.71-.38 1.71-1.3V35.8h-1.36c-1.09 0-1.66.4-1.66 1.12v.29c0 .72.48 1.06 1.31 1.06zM80.23 40h-2.81v-9.98h2.81v1.7h.11a2.66 2.66 0 0 1 2.68-1.92c1.37 0 2.36.7 2.8 2.01h.05c.36-1.12 1.52-2.01 3.04-2.01 1.92 0 2.99 1.44 2.99 3.95V40h-2.82v-6.02c0-1.3-.43-1.9-1.36-1.9-.84 0-1.66.47-1.66 1.46V40h-2.8v-6.02c0-1.3-.46-1.9-1.38-1.9-.81 0-1.65.47-1.65 1.46V40zm16.39 0H93.8v-9.98h2.82v2.17h.1c.22-1.1.98-2.16 2.54-2.16h.5v2.62h-.71c-1.64 0-2.43.36-2.43 1.52V40z"/><path fill="#FF5C00" d="M23.76 1.76V.66a.66.66 0 0 0-.69-.66A14.27 14.27 0 0 0 9.51 13.67c.01.46.39.58.6.58h1.12c.35 0 .64-.28.66-.63A11.89 11.89 0 0 1 23.15 2.38c.46-.06.6-.32.6-.62m-10 12.49h1.06c.34 0 .62-.27.65-.61a8.32 8.32 0 0 1 7.74-7.7.6.6 0 0 0 .56-.62V4.23a.66.66 0 0 0-.7-.66 10.7 10.7 0 0 0-9.98 9.97c-.02.38.28.71.66.71m10.02-6.44V8.9c0 .45-.39.6-.58.63a4.76 4.76 0 0 0-4.14 4.13.66.66 0 0 1-.66.59h-1.06a.66.66 0 0 1-.66-.72 7.14 7.14 0 0 1 6.38-6.38c.39-.04.72.27.72.66zm12.48 15.92c-.3 0-.56-.15-.62-.61a11.89 11.89 0 0 0-11.24-11.26.66.66 0 0 1-.63-.66v-1.11c0-.22.12-.6.58-.61 7.38.3 13.32 6.2 13.67 13.56a.66.66 0 0 1-.66.69h-1.1zM23.75 13.7c0-.38.33-.68.7-.66a10.7 10.7 0 0 1 9.98 9.97c.02.38-.28.7-.66.7h-1.09a.6.6 0 0 1-.63-.55 8.32 8.32 0 0 0-7.69-7.74.66.66 0 0 1-.61-.65V13.7zm6.44 10.02H29.1c-.45 0-.6-.39-.63-.58a4.76 4.76 0 0 0-4.13-4.14.66.66 0 0 1-.59-.66V17.3c0-.39.33-.7.72-.66a7.13 7.13 0 0 1 6.38 6.38.66.66 0 0 1-.66.72zM1.76 14.25c.3 0 .56.15.62.6a11.89 11.89 0 0 0 11.24 11.27c.35.02.63.3.63.66v1.11c0 .22-.12.6-.58.61A14.27 14.27 0 0 1 0 14.94a.66.66 0 0 1 .66-.7h1.1zm12.49 10.01c0 .39-.33.69-.7.66a10.7 10.7 0 0 1-9.98-9.97.66.66 0 0 1 .66-.7h1.09a.6.6 0 0 1 .63.56 8.32 8.32 0 0 0 7.69 7.74c.34.02.61.3.61.65v1.06zM7.81 14.25H8.9c.45 0 .6.38.63.57a4.76 4.76 0 0 0 4.13 4.15c.34.04.59.32.59.65v1.07c0 .38-.33.7-.72.65a7.14 7.14 0 0 1-6.38-6.37.66.66 0 0 1 .66-.72zm6.44 22c0-.3.15-.56.61-.62a11.89 11.89 0 0 0 11.26-11.25c.02-.35.31-.62.66-.62h1.12c.22 0 .59.12.6.58A14.27 14.27 0 0 1 14.95 38a.66.66 0 0 1-.69-.66v-1.1zm10.02-12.5c.38 0 .68.33.66.71a10.7 10.7 0 0 1-9.97 9.97.66.66 0 0 1-.7-.66V32.7a.6.6 0 0 1 .55-.63 8.32 8.32 0 0 0 7.74-7.69c.03-.34.3-.61.65-.61h1.07zM14.25 30.2v-1.08c0-.45.39-.61.58-.63a4.76 4.76 0 0 0 4.14-4.14.66.66 0 0 1 .66-.58h1.06c.39 0 .7.33.66.71a7.13 7.13 0 0 1-6.38 6.38.66.66 0 0 1-.72-.66z"/></g></svg>
