<svg width="128" height="128" viewBox="0 0 128 128" xmlns="http://www.w3.org/2000/svg">
    <g fill="none" stroke-linecap="round" stroke-linejoin="round">
        <path stroke="#E2761B" fill="#E2761B" d="M113 15L71 45l7.767-17.7z"/>
        <g fill="#E4761B" stroke="#E4761B">
            <path d="M15.84 15.208l41.91 31.084-7.43-18.459zm82.331 71.375L86.919 103.5l24.075 6.5 6.921-23.042zm-86.789.375L18.261 110l24.075-6.5-11.252-16.917z"/>
            <path d="M40.977 58l-6.709 9.958L58.173 69l-.849-25.208zm47.258 0l-16.56-14.5-.551 25.5 23.863-1.042zm-45.899 45.5l14.351-6.875-12.398-9.5zm30.189-6.875l14.394 6.875-1.996-16.375z"/>
        </g>
        <path d="M86.915 103.855l-14.391-6.5 1.146 8.706-.128 3.663zm-44.575 0l13.372 5.87-.085-3.664 1.062-8.706z" fill="#D7C1B3" stroke="#D7C1B3"/>
        <path stroke="#233447" fill="#233447" d="M56 81l-12-3.816L52.468 73zm17 0l3.52-8L85 77.184z"/>
        <path d="M42.293 103.749l2.023-16.996-13.19.377zm42.223-16.996l2.022 16.996L97.705 87.13zm10.029-18.711l-23.682 1.046 2.191 12.098 3.498-7.284 8.427 3.81zm-50.651 9.67l8.428-3.81 3.455 7.284 2.234-12.098-23.724-1.046z" fill="#CD6116" stroke="#CD6116"/>
        <path d="M34.339 68.042l9.997 19.516-.339-9.716zm50.961 9.8l-.424 9.716 10.04-19.516zm-27.112-8.739l-2.245 12.26L58.74 95.83l.635-19.048zm12.92 0l-1.143 7.636.508 19.091 2.838-14.466z" fill="#E4751F" stroke="#E4751F"/>
        <path stroke="#F6851B" fill="#F6851B" d="M73.68 82.27L71 95.7l1.92 1.3 11.68-8.98L85 79zM44 79l.322 9.02L56.069 97 58 95.7l-2.655-13.43z"/>
        <path stroke="#C0AD9E" fill="#C0AD9E" d="M73.5 109.69l.129-4.176-1.072-.987H56.4l-.986.987.086 4.176L42 103l4.714 4.04 9.557 6.96h16.415l9.6-6.96L87 103z"/>
        <path stroke="#161616" fill="#161616" d="M71.856 96.43L69.824 95H58.092l-2.033 1.43L55 106l.974-.953h15.967L73 106z"/>
        <path d="M114.33 48.277l3.586-17.143-5.358-15.924-40.585 30 15.61 13.151 22.064 6.429 4.894-5.672-2.11-1.513 3.375-3.067-2.615-2.017 3.375-2.563zM10.338 31.134l3.585 17.143-2.278 1.681 3.375 2.563-2.573 2.017 3.375 3.067-2.11 1.513 4.852 5.672 22.064-6.429 15.61-13.15-40.585-30z" fill="#763D16" stroke="#763D16"/>
        <path stroke="#F6851B" fill="#F6851B" d="M109.525 65.348L87.313 59l6.753 9.916L84 88l13.251-.166H117zM40.679 59l-22.27 6.348L11 87.834h19.757L44 88 33.951 68.916zm30.373 9.912L72.47 45.02 79 28H50l6.444 17.02 1.504 23.892.516 7.537L58.507 95h11.9l.086-18.551z"/>
    </g>
</svg>
