<svg viewBox="0 0 48 48" fill="none" xmlns="http://www.w3.org/2000/svg">
  <circle cx="24" cy="24" r="24" fill="#8247E5"/>
  <path d="M32.284 18.328c-.6-.37-1.38-.37-2.04 0l-4.683 2.836-3.182 1.85-4.682 2.835c-.6.37-1.38.37-2.04 0l-3.723-2.22c-.6-.369-1.02-1.047-1.02-1.787v-4.377c0-.74.36-1.418 1.02-1.788l3.662-2.158c.6-.37 1.38-.37 2.041 0l3.662 2.158c.6.37 1.02 1.048 1.02 1.788V20.3l3.182-1.911v-2.837c0-.74-.36-1.418-1.02-1.788l-6.784-4.069c-.6-.37-1.38-.37-2.04 0l-6.904 4.07c-.66.37-1.02 1.048-1.02 1.787v8.2c0 .74.36 1.418 1.02 1.788l6.903 4.07c.6.37 1.38.37 2.041 0l4.682-2.775 3.182-1.911 4.682-2.775c.6-.37 1.38-.37 2.041 0l3.662 2.158c.6.37 1.02 1.048 1.02 1.788v4.377c0 .74-.36 1.419-1.02 1.788l-3.662 2.22c-.6.37-1.38.37-2.04 0l-3.663-2.158c-.6-.37-1.02-1.048-1.02-1.788V27.7l-3.182 1.911v2.836c0 .74.36 1.418 1.02 1.788l6.904 4.07c.6.37 1.38.37 2.041 0l6.903-4.07c.6-.37 1.02-1.048 1.02-1.788v-8.2c0-.74-.36-1.418-1.02-1.787l-6.963-4.131Z" fill="#fff"/>
</svg>