<svg width="48" height="48" viewBox="0 0 48 48" fill="none" xmlns="http://www.w3.org/2000/svg">
<path d="M24 0C41.7361 0 48 6.29335 48 24C48 41.6397 41.6317 48 24 48C6.42021 48 0 41.5581 0 24C0 6.37463 6.3155 0 24 0Z" fill="#0324FF"/>
<path d="M21.7531 17.253H18.0031C17.5888 17.253 17.2531 17.5888 17.2531 18.003V23.253C17.2531 23.6672 17.5888 24.003 18.0031 24.003H21.7531C22.1673 24.003 22.5031 23.6672 22.5031 23.253V18.003C22.5031 17.5888 22.1673 17.253 21.7531 17.253Z" stroke="white" stroke-width="1.5" stroke-linecap="round" stroke-linejoin="round"/>
<path d="M21.7531 27.003H18.0031C17.5888 27.003 17.2531 27.3388 17.2531 27.753V30.003C17.2531 30.4172 17.5888 30.753 18.0031 30.753H21.7531C22.1673 30.753 22.5031 30.4172 22.5031 30.003V27.753C22.5031 27.3388 22.1673 27.003 21.7531 27.003Z" stroke="white" stroke-width="1.5" stroke-linecap="round" stroke-linejoin="round"/>
<path d="M30.0031 24.003H26.2531C25.8388 24.003 25.5031 24.3388 25.5031 24.753V30.003C25.5031 30.4172 25.8388 30.753 26.2531 30.753H30.0031C30.4173 30.753 30.7531 30.4172 30.7531 30.003V24.753C30.7531 24.3388 30.4173 24.003 30.0031 24.003Z" stroke="white" stroke-width="1.5" stroke-linecap="round" stroke-linejoin="round"/>
<path d="M30.0031 17.253H26.2531C25.8388 17.253 25.5031 17.5888 25.5031 18.003V20.253C25.5031 20.6672 25.8388 21.003 26.2531 21.003H30.0031C30.4173 21.003 30.7531 20.6672 30.7531 20.253V18.003C30.7531 17.5888 30.4173 17.253 30.0031 17.253Z" stroke="white" stroke-width="1.5" stroke-linecap="round" stroke-linejoin="round"/>
<path d="M33.7531 12.753H14.2531C13.4246 12.753 12.7531 13.4246 12.7531 14.253V33.753C12.7531 34.5814 13.4246 35.253 14.2531 35.253H33.7531C34.5815 35.253 35.2531 34.5814 35.2531 33.753V14.253C35.2531 13.4246 34.5815 12.753 33.7531 12.753Z" stroke="white" stroke-width="1.5" stroke-linecap="round" stroke-linejoin="round"/>
</svg>
