<?xml version="1.0" standalone="no"?>
<!DOCTYPE svg PUBLIC "-//W3C//DTD SVG 1.1//EN" "http://www.w3.org/Graphics/SVG/1.1/DTD/svg11.dtd">
<svg xmlns="http://www.w3.org/2000/svg">
<metadata>Generated by Fontastic.me</metadata>
<defs>
<font id="streamr-icons" horiz-adv-x="512">
<font-face font-family="streamr-icons" units-per-em="512" ascent="480" descent="-32"/>
<missing-glyph horiz-adv-x="512" />

<glyph glyph-name="arrow-left" unicode="&#97;" d="M124 377l37-36-60-59 411 0 0-52-411 0 60-59-37-36-124 121z"/>
<glyph glyph-name="arrow-right" unicode="&#98;" d="M388 377l-37-36 60-59-411 0 0-52 411 0-60-59 37-36 124 121z"/>
<glyph glyph-name="battery" unicode="&#99;" d="M189 512c-5 0-10-4-11-9l-9-58-68 0c-3 0-6-1-8-3-2-2-3-5-3-8l0-423c0-6 5-11 11-11l310 0c6 0 11 5 11 11l0 423c0 3-1 6-3 8-2 2-5 3-8 3l-68 0-9 58c-1 5-6 9-11 9z m10-22l114 0 10-58c1-5 5-9 11-9l66 0 0-401-288 0 0 401 66 0c6 0 10 4 11 9z m-32-401c-6 0-11-5-11-11 0-6 5-11 11-11l178 0c6 0 11 5 11 11 0 6-5 11-11 11z m0 45c-6 0-11-5-11-12 0-6 5-11 11-11l178 0c6 0 11 5 11 11 0 7-5 12-11 12z m0 44c-4 0-8-2-10-5-2-4-2-8 0-12 2-3 6-5 10-5l178 0c4 0 8 2 10 5 2 4 2 8 0 12-2 3-6 5-10 5z m0 45c-4 0-8-2-10-6-2-3-2-8 0-11 2-4 6-6 10-6l178 0c4 0 8 2 10 6 2 3 2 8 0 11-2 4-6 6-10 6z m0 44c-4 0-8-2-10-5-2-4-2-8 0-12 2-3 6-5 10-5l178 0c4 0 8 2 10 5 2 4 2 8 0 12-2 3-6 5-10 5z"/>
<glyph glyph-name="blog" unicode="&#100;" d="M416 0c53 0 96 43 96 96l0 368c0 27-21 48-48 48l-288 0c-27 0-48-21-48-48l0-368c0-18-14-32-32-32-18 0-32 14-32 32l0 192c0 18-14 32-32 32-18 0-32-14-32-32l0-192c0-53 43-96 96-96z m-72 96l-120 0c-13 0-24 11-24 24 0 13 11 24 24 24l120 0c13 0 24-11 24-24 0-13-11-24-24-24z m72 96l-192 0c-13 0-24 11-24 24 0 13 11 24 24 24l192 0c13 0 24-11 24-24 0-13-11-24-24-24z m-216 120c0 13 11 24 24 24l120 0c13 0 24-11 24-24 0-13-11-24-24-24l-120 0c-13 0-24 11-24 24z m216 72l-192 0c-13 0-24 11-24 24 0 13 11 24 24 24l192 0c13 0 24-11 24-24 0-13-11-24-24-24z"/>
<glyph glyph-name="caret-left" unicode="&#101;" d="M377 476l-220-220 220-220-29-29-249 249 249 249z"/>
<glyph glyph-name="caret-right" unicode="&#102;" d="M164 505l-29-29 220-220-220-220 29-29 249 249z"/>
<glyph glyph-name="check" unicode="&#103;" d="M472 445c-8 0-16-4-21-10l-262-300-135 152c-6 8-16 12-26 10-10-2-18-9-21-18-3-10 0-20 7-27l154-176c6-5 13-9 21-9 7 0 15 4 20 10l283 323c7 8 9 19 4 29-4 10-13 16-24 16z"/>
<glyph glyph-name="check-circle" unicode="&#104;" d="M245 12c-135 0-244 110-244 244 0 134 109 244 244 244 134 0 244-110 244-244 0-134-110-244-244-244z m0 439c-108 0-195-87-195-195 0-108 87-195 195-195 107 0 195 87 195 195 0 108-88 195-195 195z m-21-315l-98 98 43 44 48-48 101 141 49-35z"/>
<glyph glyph-name="cross" unicode="&#105;" d="M407 467l60-60-362-362-60 60z m60-362l-60-60-362 362 60 60z"/>
<glyph glyph-name="cross-circle" unicode="&#106;" d="M245 12c-135 0-244 110-244 244 0 134 109 244 244 244 134 0 244-110 244-244 0-134-110-244-244-244z m0 439c-108 0-195-87-195-195 0-108 87-195 195-195 107 0 195 87 195 195 0 108-88 195-195 195z m115-115l-35 35-80-81-80 81-35-35 80-80-80-80 35-35 80 80 80-80 35 35-81 80z"/>
<glyph glyph-name="data-market" unicode="&#107;" d="M256 512c-141 0-256-115-256-256 0-141 115-256 256-256 141 0 256 115 256 256 0 141-115 256-256 256z m0-21c130 0 235-105 235-235 0-130-105-235-235-235-130 0-235 105-235 235 0 130 105 235 235 235z m85-123c-7 0-14-5-15-12l0 0-10-41-135 0c-5 0-9-3-12-7-3-3-4-8-3-13l21-86c2-7 8-12 16-12l106 0c8 0 14 6 16 13l0 0 29 126 35 0 0 32z m-139-85l107 0-12-54-82 0z m11-86c-14 0-26-12-26-26 0-15 12-27 26-27 15 0 27 12 27 27 0 14-12 26-27 26z m86 0c-15 0-27-12-27-26 0-15 12-27 27-27 14 0 26 12 26 27 0 14-12 26-26 26z"/>
<glyph glyph-name="email" unicode="&#108;" d="M504 509c6-5 9-11 8-18l-73-439c-1-6-4-10-10-13-2-2-5-2-8-2-2 0-5 0-7 1l-130 53-69-84c-3-5-8-7-14-7-2 0-4 0-6 1-4 1-7 4-9 7-2 3-3 6-3 10l0 100 247 303-306-265-113 47c-7 2-10 7-11 15 0 8 3 14 9 17l476 274c2 2 6 3 9 3 4 0 7-1 10-3z"/>
<glyph glyph-name="ethereum" unicode="&#109;" d="M256 512c-141 0-256-115-256-256 0-141 115-256 256-256 141 0 256 115 256 256 0 141-115 256-256 256z m0-21c130 0 235-105 235-235 0-130-105-235-235-235-130 0-235 105-235 235 0 130 105 235 235 235z m-4-75c-4 0-7-2-9-5l-103-171c-2-3-2-8 1-12l103-138c2-3 5-5 9-5 3 0 6 2 8 5l100 138c2 4 2 8 0 12l-99 171c-2 3-6 5-10 5z m0-32l87-149-87-121-90 121z m100-137l-100-43-87 43-10-19 97-48 108 48z"/>
<glyph glyph-name="github" unicode="&#110;" d="M256 506c-141 0-256-115-256-256 0-113 73-209 175-243 13-3 18 5 18 12 0 6-1 22-1 44-71-16-86 34-86 34-12 30-28 37-28 37-24 16 1 16 1 16 26-2 40-26 40-26 22-40 59-28 74-22 2 17 9 28 16 34-57 7-116 29-116 127 0 28 10 51 26 69-3 6-11 32 3 68 0 0 21 6 70-27 20 6 42 9 64 9 22 0 44-3 64-9 49 33 70 27 70 27 14-36 6-62 3-68 16-18 26-41 26-69 0-98-60-120-117-126 10-8 18-24 18-48 0-34-1-62-1-70 0-7 5-15 18-12 102 34 175 130 175 243 0 141-115 256-256 256"/>
<glyph glyph-name="hamburger" unicode="&#111;" d="M0 439l0-73 512 0 0 73z m0-146l0-74 512 0 0 74z m0-147l0-73 512 0 0 73z"/>
<glyph glyph-name="link" unicode="&#112;" d="M52 84c34-34 78-50 122-50 45 0 89 16 122 50l29 29c17 16 17 42 0 59-16 16-42 16-58 0l-29-29c-36-36-93-36-129 0-36 35-36 93 0 128l29 29c16 17 16 43 0 59-17 17-42 17-59 0l-29-29c-66-68-66-179 2-246z m320 192c-16-16-16-42 0-58 9-8 19-13 29-13 10 0 22 5 29 13l29 29c33 33 51 76 51 122 0 46-18 90-51 122-68 68-177 68-245 0l-29-29c-17-16-17-42 0-58 16-17 42-17 59 0l29 29c35 35 93 35 128 0 18-18 27-40 27-65 0-24-9-47-27-64z m-99 88l-93-93c-16-17-16-42 0-59 8-8 19-12 29-12 11 0 21 4 29 12l93 93c17 17 17 42 0 59-16 16-41 16-58 0z"/>
<glyph glyph-name="linkedin" unicode="&#113;" d="M61 386c38 0 62 25 62 57 0 33-24 57-61 57-38 0-62-24-62-57 0-32 24-57 61-57z m-55-375l110 0 0 330-110 0z m171 0l109 0 0 184c0 10 1 20 4 27 8 20 26 40 56 40 40 0 55-30 55-75l0-176 110 0 0 189c0 102-54 149-126 149-59 0-85-33-100-56l1 0 0 48-109 0c1-31 0-330 0-330"/>
<glyph glyph-name="message-sent" unicode="&#114;" d="M256 512c-141 0-256-115-256-256 0-141 115-256 256-256 141 0 256 115 256 256 0 141-115 256-256 256z m0-21c130 0 235-105 235-235 0-130-105-235-235-235-130 0-235 105-235 235 0 130 105 235 235 235z m-109-201c-8-8-8-18-7-20l0 0c1-11 9-20 20-23l70-18 18-70c3-11 12-19 23-21 3 0 13-1 21 7l0 0c9 10 14 26 37 84 11 30 27 71 49 127 3 6 1 13-3 18-5 4-12 5-17 3-56-22-97-38-127-49-59-23-75-28-84-38z m92-52c-159-159-79-79 0 0z m-56 36c4 2 5 3 10 5 11 5 28 11 49 19 15 6 36 14 56 22l-59-60z m78-36l60 59c-8-21-16-42-22-57-8-21-15-38-19-49-2-5-3-6-5-9z m-85-62c-1 0-3-1-4-2l-90-90c-6-5 2-13 7-8l91 91c3 3 1 9-4 9z m-41 0c-1 0-3-1-4-2l-60-60c-5-5 2-13 7-7l61 60c3 3 1 9-4 9z m43-43c-2 0-3 0-4-1l-60-61c-6-5 2-12 7-7l60 60c4 4 1 10-3 9z"/>
<glyph glyph-name="play" unicode="&#115;" d="M256 512c-141 0-256-115-256-256 0-141 115-256 256-256 141 0 256 115 256 256 0 141-115 256-256 256z m0-461c-113 0-205 92-205 205 0 113 92 205 205 205 113 0 205-92 205-205 0-113-92-205-205-205z m-48 93l160 104-160 104z"/>
<glyph glyph-name="qq" unicode="&#116;" d="M451 172c-22 15-49 14-64-8-16-22-123-157-299-101 6-6 13-11 21-16 115-82 275-54 356 62 16 22 8 48-14 63z m-340 17c-11 24-74 185 62 310-8-3-16-6-25-10-128-59-184-212-124-340 11-25 37-31 61-19 25 11 37 35 26 59z m168 323c-27 2-45-18-47-44-3-27 12-50 38-52 27-2 198-28 237-209 2 9 3 17 4 26 13 141-91 266-232 279z m-109-271c-8-17-9-34-3-37 4-2 10 3 16 12 3-10 8-18 17-25-9-4-15-9-15-15 0-10 16-18 35-18 17 0 31 7 34 15 1 0 3 0 4 0 3-8 17-15 34-15 19 0 35 8 35 18 0 6-6 11-15 15 9 7 14 15 17 25 6-9 12-14 16-12 6 3 5 20-2 37-6 14-14 24-20 26 0 1 0 2 0 3 0 5-1 10-4 14 0 0 0 0 0 1 0 2 0 4-1 6-2 36-25 64-62 64-37 0-60-28-62-64-1-2-1-4-1-6 0-1 0-1 0-1-3-4-4-9-4-14 0-1 0-2 0-3-6-2-14-12-19-26z"/>
<glyph glyph-name="reddit" unicode="&#117;" d="M322 197c-17 0-31 14-31 31 0 17 14 31 31 31 17 0 32-14 32-31 0-17-15-31-32-31m-1-53c-24-13-46-17-65-17-39 0-65 19-66 20-4 3-5 8-2 11 3 4 8 5 11 2 2-1 51-36 115-1 4 2 9 1 11-3 2-4 0-9-4-12m-156 84c0 17 14 31 32 31 17 0 31-14 31-31 0-17-14-31-31-31-18 0-32 14-32 31m227 178c13 0 24-11 24-25 0-13-11-24-24-24-14 0-25 11-25 24 0 14 11 25 25 25m73-143c0 26-21 47-48 47-12 0-23-5-32-12-32 20-73 32-118 34l24 77 63-27c0 0 0 0 0-1 0-21 18-38 39-38 21 0 38 17 38 38 0 21-17 38-38 38-16 0-29-9-35-22l-69 29c-2 1-4 1-6 0-2-1-4-3-4-5l-28-89c-47-1-91-12-125-34-9 8-20 12-31 12-27 0-48-21-48-47 0-17 8-31 22-40-1-5-1-10-1-14 0-34 20-65 56-89 35-22 82-35 131-35 50 0 96 13 131 35 37 24 56 55 56 89 0 4 0 8-1 13 15 8 24 24 24 41"/>
<glyph glyph-name="road" unicode="&#118;" d="M181 500c-100 0-181-81-181-180 0-100 81-181 181-181l43 0c4 0 8 2 9 6 2 3 2 7 0 10-1 4-5 6-9 6l-43 0c-88 0-160 71-160 159 0 87 72 159 160 159 89 0 160-72 160-159l0-297c0-4 2-7 6-9 3-2 7-2 10 0 4 2 6 5 6 9l0 297c0 99-82 180-182 180z m171-212c-6 0-11-5-11-11 0-6 5-10 11-10l149 0c6 0 11 4 11 10 0 6-5 11-11 11z m0-127c-4 0-8-2-9-6-2-3-2-7 0-10 1-4 5-6 9-6l149 0c4 0 8 2 10 6 2 3 2 7 0 10-2 4-6 6-10 6z m-171 212c-29 0-53-24-53-53 0-30 24-53 53-53l32 0 0-244c0-4 2-8 6-10 3-2 7-2 10 0 4 2 6 6 6 10l0 252c0 2 0 3 0 4l0 41c0 29-24 53-54 53z m0-22c18 0 32-14 32-31l0-32-32 0c-18 0-32 14-32 32 0 17 14 31 32 31z m107-190c-6 0-11-5-11-11l0-106c0-4 2-8 6-9 3-2 7-2 10 0 4 1 6 5 6 9l0 106c0 3-1 6-4 8-2 2-4 3-7 3z m0 190c-6 0-11-5-11-11l0-106c0-4 2-7 6-9 3-2 7-2 10 0 4 2 6 5 6 9l0 106c0 3-1 6-4 8-2 2-4 3-7 3z m-203 25c-4 0-8-2-10-6-7-15-11-32-11-50 0-19 4-36 12-51 2-6 9-8 14-5 5 2 7 9 5 14-6 12-10 27-10 42 0 14 4 28 10 41 1 3 1 7-1 10-2 3-5 5-9 5z m64-147c-5 0-10-4-11-9-1-5 3-10 8-12 11-3 23-5 35-5l32 0c4 0 8 2 10 5 2 4 2 8 0 11-2 3-6 5-10 5l-32 0c-10 0-20 2-29 4-1 1-2 1-3 1z m32 207c-18 0-36-4-52-12-5-2-7-9-4-14 2-5 9-7 14-5 13 6 27 10 42 10 15 0 29-3 42-9 3-2 7-2 11 0 3 2 5 6 4 10 0 4-2 7-6 9-15 7-33 11-51 11z m214-212c-4 0-8-2-10-5-2-3-2-7 0-11 2-3 6-5 10-5l85 0c4 0 8 2 9 5 2 4 2 8 0 11-1 3-5 5-9 5z"/>
<glyph glyph-name="rocket" unicode="&#119;" d="M82 472c-47 2-80-17-80-17 0 0 65-53 54-99-29-29-44-63-44-99l0-1c0-35 15-70 44-98 11-47-54-100-54-100 0 0 69-39 153 1 16 9 30 19 43 31 20-3 41-5 63-5 63 0 124 16 170 45 24 15 43 33 56 54 15 23 23 47 23 72l0 1c0 26-8 50-23 73-13 20-32 38-56 53-46 30-107 46-170 46-22 0-43-2-63-6-13 12-27 23-43 31-26 13-51 18-73 18z m80-192c16 0 28-12 28-28 0-16-12-28-28-28-16 0-28 12-28 28 0 16 12 28 28 28z m99 0c15 0 28-12 28-28 0-16-13-28-28-28-16 0-29 12-29 28 0 16 13 28 29 28z m98 0c16 0 29-12 29-28 0-16-13-28-29-28-15 0-28 12-28 28 0 16 13 28 28 28z"/>
<glyph glyph-name="slack" unicode="&#120;" d="M210 278l68 23 22-66-68-22z m0 0l68 23 22-66-68-22z m278 49c-53 175-128 215-303 163-175-52-215-128-163-303 52-174 128-215 303-163 174 53 215 128 163 303z m-89-113l-32-11 11-34c4-14-3-29-17-34-3-1-6-1-9-1-10 0-20 7-24 18l-11 34-68-23 11-34c5-14-3-29-17-33-2-1-6-2-9-1-10 0-20 7-24 18l-11 34-33-11c-3-1-6-2-9-2-11 1-21 8-25 18-4 14 3 29 17 34l33 11-22 65-33-11c-3-1-6-2-9-1-10 0-20 7-24 18-5 14 3 29 17 33l32 11-11 34c-4 14 3 29 17 34 14 4 29-3 33-17l11-34 68 22-11 35c-5 13 3 28 17 33 13 4 28-3 33-17l11-34 33 11c14 5 29-3 34-17 4-13-3-28-17-33l-33-11 22-65 33 11c14 4 29-3 33-17 5-14-3-29-17-33z"/>
<glyph glyph-name="smart-contracts" unicode="&#121;" d="M256 512c-141 0-256-115-256-256 0-141 115-256 256-256 141 0 256 115 256 256 0 141-115 256-256 256z m0-21c130 0 235-105 235-235 0-130-105-235-235-235-130 0-235 105-235 235 0 130 105 235 235 235z m11-267l42 0 0-21-42 0z m-61 35l24-24-24-25 15-15 39 40-39 39z m97 114l-122 0c-11 0-21-9-21-21l0-192c0-12 10-21 21-21l150 0c11 0 21 9 21 21l0 164z m-122-213l0 192 107 0 0-43 43 0 0-149z"/>
<glyph glyph-name="socket" unicode="&#122;" d="M13 509l17-17m304 20c-3 0-6-1-8-3l-72-72c-3-3-4-7-3-11 1-4 4-7 8-8 4-1 8 0 11 3l68 69 18 0 0-18-68-69c-3-2-5-6-4-10 1-4 4-7 8-8 4-1 8 0 11 3l72 72c2 2 3 5 3 7l0 34c0 3-1 6-3 8-2 2-5 3-8 3z m89-89c-3 0-6-1-8-3l-72-72c-3-3-4-7-3-11 1-4 4-7 8-8 4-1 8 0 11 3l68 69 18 0 0-18-69-69c-2-2-4-7-3-10 1-4 4-7 8-8 4-1 8 0 11 3l72 72c2 2 3 4 3 7l0 34c0 3-1 6-3 8-2 2-5 3-8 3z m-241-91c-4 0-7-2-9-4-2-2-3-5-2-8l7-87c1-5 5-10 11-10l86-8c5 0 9 2 11 6 2 5 1 10-2 13l-94 94c-3 3-5 4-8 4z m14-41l50-51-46 4z m-46-85c-3 0-6-1-8-4l-94-94c-4-4-4-11 0-15l77-89c2-3 5-4 8-4 3 0 6 1 9 3l80 81 70-80c2-3 5-4 8-4 3 0 6 1 8 3l81 81 37-36c3-3 7-4 11-3 4 1 7 4 8 8 1 4 0 8-3 11l-45 44c-4 4-11 4-15 0l-81-81-70 80c-2 3-5 4-8 4-3 0-6-1-8-3l-81-81-63 73 87 87c3 3 4 8 3 12-2 4-6 7-11 7z m47 236c-4 0-8-3-10-7-2-4-1-9 3-12l188-189c3-3 7-4 11-3 4 1 7 4 8 8 1 4 0 8-3 11l-189 189c-2 2-5 3-8 3z m31 31c-3 0-5-1-7-3l-126-126c-3-3-4-7-2-11l47-142c1-3 3-6 7-7l141-47c4-2 9 0 12 3l125 125c4 4 4 11 0 16l-189 189c-2 2-5 3-8 3z m0-27l173-173-112-113-130 43-43 130z"/>
<glyph glyph-name="spinner" unicode="&#65;" d="M406 406c-36 36-85 57-138 57-107 0-195-87-195-195l-49 0c0 135 110 244 244 244 66 0 127-27 172-72l48 48 0-147-147 0z m-276-276c36-36 85-57 138-57 108 0 195 88 195 195l49 0c0-134-109-244-244-244-66 0-127 27-172 72l-47-47 0 146 146 0z"/>
<glyph glyph-name="streamr-engine" unicode="&#66;" d="M256 512c-141 0-256-115-256-256 0-141 115-256 256-256 141 0 256 115 256 256 0 141-115 256-256 256z m0-21c130 0 235-105 235-235 0-130-105-235-235-235-130 0-235 105-235 235 0 130 105 235 235 235z m-64-141l-30-30 17-17c-4-7-7-13-9-20l-26 0 0-54 26 0c2-7 5-13 9-20l-17-17 30-30 17 17c7-4 13-7 20-9l0-26 54 0 0 26c7 2 13 5 20 9l17-17 30 30-17 17c4 8 8 16 11 24l1 7-32 0-2-4c-8-22-29-39-55-39-32 0-59 27-59 59 0 26 17 47 39 55l4 1 0 33-7-1c-8-3-16-7-24-11z m-13-114c-119-157-60-79 0 0z m115 132l0-18c-1 0-2 0-2-1l-12 11-22-22 12-11c-1-1-1-2-2-3l-17 0 0-30 17 0c1-1 1-2 2-2l-12-12 22-22 12 11c0 0 1 0 2-1l0-17 30 0 0 17c1 1 2 1 3 1l11-11 23 22-12 12c1 0 1 1 1 2l18 0 0 30-18 0c0 1 0 2-1 3l12 11-23 22-11-11c-1 1-2 1-3 1l0 18z m15-43c9 0 16-7 16-16 0-9-7-16-16-16-9 0-16 7-16 16 0 9 7 16 16 16z"/>
<glyph glyph-name="streamr-network" unicode="&#67;" d="M341 235c-3 0-6-1-8-2l-18 12c3 7 5 14 5 22 0 11-3 21-9 29l25 25c2-1 3-1 5-1 12 0 22 10 22 21 0 12-10 22-22 22-11 0-21-10-21-22 0-2 0-3 1-5l-25-25c-8 6-18 9-29 9-16 0-31-7-41-19l-34 19c0 12-10 21-21 21-12 0-22-9-22-21 0-12 10-21 22-21 4 0 7 1 11 3l34-19c-2-5-3-11-3-16 0-11 4-21 9-30l-46-46c-2 1-3 1-5 1-12 0-22-10-22-21 0-12 10-22 22-22 11 0 21 10 21 22 0 2 0 3-1 5l46 46c6-3 12-6 19-8l0-25c-6-4-11-10-11-18 0-12 10-22 22-22 11 0 21 10 21 22 0 8-4 14-11 18l0 25c10 2 19 7 26 14l17-13c0 0 0-1 0-2 0-11 10-21 21-21 12 0 22 10 22 21 0 12-10 22-22 22z m-74 0c-18 0-32 14-32 32 0 17 14 32 32 32 17 0 32-15 32-32 0-18-15-32-32-32z m-11 277c-141 0-256-115-256-256 0-141 115-256 256-256 141 0 256 115 256 256 0 141-115 256-256 256z m0-21c130 0 235-105 235-235 0-130-105-235-235-235-130 0-235 105-235 235 0 130 105 235 235 235z"/>
<glyph glyph-name="traffic-light" unicode="&#68;" d="M152 510c-6 0-11-4-11-10l0-474c0-5 5-10 11-10l206 0c5 0 10 5 10 10l0 474c0 6-5 10-10 10z m10-20l185 0 0-454-185 0z m196-21c-4 0-8-2-10-5-2-3-2-7 0-11 2-3 6-5 10-5l80 0-47-55c-3-2-4-6-2-10 1-4 4-6 8-7 3-1 7 1 10 4l61 72c3 3 4 7 2 11-2 4-5 6-10 6z m0-144c-4 0-8-2-10-5-2-3-2-7 0-11 2-3 6-5 10-5l80 0-47-55c-3-3-3-7-2-10 1-4 4-6 8-7 3-1 7 1 10 4l61 72c3 3 4 7 2 11-2 4-5 6-10 6z m0-144c-6 0-11-5-11-11 0-5 5-10 11-10l80 0-47-55c-3-3-3-7-2-10 1-4 4-6 8-7 3-1 7 1 10 4l61 72c3 3 4 7 2 11-2 3-5 6-10 6z m-309 288c-4 0-8-2-10-6-1-4-1-8 2-11l62-72c2-3 6-5 9-4 4 1 7 3 8 7 2 4 1 8-2 10l-47 55 81 0c3 0 7 2 9 5 2 4 2 8 0 11-2 3-6 5-9 5z m0-144c-4 0-8-2-10-6-1-4-1-8 2-11l62-72c2-3 6-5 9-4 4 1 7 3 8 7 2 3 1 7-2 10l-47 55 81 0c3 0 7 2 9 5 2 4 2 8 0 11-2 3-6 5-9 5z m0-144c-4 0-8-3-10-6-1-4-1-8 2-11l62-72c2-3 6-5 9-4 4 1 7 3 8 7 2 3 1 7-2 10l-47 55 81 0c5 0 10 5 10 10 0 6-5 11-10 11z m205 267c-2 0-3 0-5-1l-41-26c-3-2-5-5-5-9l0-41c0-3 2-7 5-9l41-25c3-2 8-2 11 0l41 25c3 2 5 6 5 9l0 41c0 4-2 7-5 9l-41 26c-2 1-4 2-6 1z m1-22l30-19 0-30-30-19-31 19 0 30z m-1-111c-2-1-3-1-5-2l-41-26c-3-2-5-5-5-8l0-42c0-3 2-7 5-8l41-26c3-2 8-2 11 0l41 26c3 1 5 5 5 8l0 42c0 3-2 6-5 8l-41 26c-2 1-4 2-6 2z m1-23l30-19 0-30-30-19-31 19 0 30z m-1-111c-2 0-3-1-5-2l-41-26c-3-2-5-5-5-8l0-42c0-3 2-6 5-8l41-26c3-2 8-2 11 0l41 26c3 2 5 5 5 8l0 42c0 3-2 6-5 8l-41 26c-2 1-4 2-6 2z m1-23l30-19 0-30-30-19-31 19 0 30z"/>
<glyph glyph-name="twitter" unicode="&#69;" d="M161 43c193 0 299 164 299 306 0 5 0 9 0 14 20 15 38 34 52 56-19-9-39-15-60-17 21 13 38 34 46 59-20-12-43-21-67-26-19 21-46 34-77 34-58 0-105-48-105-107 0-9 1-17 3-25-87 4-165 48-217 113-9-16-14-35-14-55 0-37 19-70 47-89-17 0-33 5-48 13 0 0 0-1 0-1 0-52 37-96 85-106-9-2-18-4-28-4-7 0-13 1-20 2 14-43 53-74 99-75-37-29-82-46-131-46-8 0-17 1-25 2 46-30 102-48 161-48"/>
<glyph glyph-name="visual-editor" unicode="&#70;" d="M256 512c-141 0-256-115-256-256 0-141 115-256 256-256 141 0 256 115 256 256 0 141-115 256-256 256z m0-21c130 0 235-105 235-235 0-130-105-235-235-235-130 0-235 105-235 235 0 130 105 235 235 235z m21-139l0-21-10 0c-18 0-32-15-32-32l0-32-22 0 0 21c0 6-4 11-10 11l-54 0c-6 0-10-5-10-11l0-64c0-6 4-11 10-11l54 0c6 0 10 5 10 11l0 21 22 0 0-32c0-17 14-32 32-32l10 0 0-21c0-6 5-11 11-11l53 0c6 0 11 5 11 11l0 64c0 6-5 11-11 11l-53 0c-6 0-11-5-11-11l0-21-10 0c-6 0-11 4-11 10l0 86c0 6 5 10 11 10l10 0 0-21c0-6 5-11 11-11l53 0c6 0 11 5 11 11l0 64c0 6-5 11-11 11l-53 0c-6 0-11-5-11-11z m-85-117l-32 0 0 42 32 0z m139-22l0-42-32 0 0 42z m0 128l0-42-32 0 0 42z"/>
<glyph glyph-name="we-chat" unicode="&#71;" d="M251 374c-11-1-21-11-21-22 0-12 10-21 22-21 12 0 21 9 21 22 0 11-10 21-22 21z m-114-22c1 11-9 21-21 22-12 0-21-9-22-21 0-12 9-22 21-22 12 0 22 9 22 21z m219-20c-48-2-89-17-123-50-33-33-49-73-45-124-18 3-35 5-52 7-6 0-13 0-18-3-16-10-32-20-51-32 4 16 6 29 10 43 3 9 1 15-7 21-57 41-81 101-63 164 16 57 57 92 112 111 76 25 161-1 207-61 17-22 27-47 30-76z m45-96c-9 1-17-7-17-17-1-10 7-18 17-18 10 0 17 7 18 17 0 10-8 18-18 18z m-110-35c10 0 18 7 18 17 0 10-8 18-18 19-10 0-18-9-18-19 1-9 9-17 18-17z m171-167c-15 7-29 17-43 18-15 2-30-7-46-8-46-5-88 8-122 40-66 61-56 155 19 205 68 44 166 29 214-32 41-54 36-125-14-171-15-13-20-23-11-41 2-3 2-7 3-11z"/>
<glyph glyph-name="www" unicode="&#72;" d="M149 440c-32-18-59-45-77-77l77 0z m214 0l0-77 77 0c-18 32-45 59-77 77m-43 19c-20 7-42 10-64 10-22 0-44-3-64-10l0-96 128 0z m-171-387l0 77-77 0c18-32 45-59 77-77m214 0c32 18 59 45 77 77l-77 0z m-171-20c20-6 42-9 64-9 22 0 44 3 64 9l0 97-128 0z m216 156l-25 0-12 48-12-47 1-1-25 0-24 96-24-95 0-1-25 0-11 48-12-47 0-1-25 0-24 96-24-95 0-1-25 0-11 48-12-47 0-1-25 0-24 96 25 0 11-47 12 47 25 0 12-47 11 47 49 0 12-47 12 47 25 0 12-47 11 47 49 0 12-47 12 47 25 0 12-47 11 47 25 0-24-95z m83 133l-470 0c-11 0-21-9-21-21l0-128c0-12 10-21 21-21l470 0c11 0 21 9 21 21l0 128c0 12-10 21-21 21z"/>
<glyph glyph-name="trello" unicode="&#73;" d="M64 512l384 0c35 0 64-29 64-64l0-384c0-35-29-64-64-64l-384 0c-35 0-64 29-64 64l0 384c0 35 29 64 64 64z m256-67c-17 0-31-13-31-30l0-163c0-17 14-31 31-31l95 0c17 0 30 14 30 31l0 163c0 17-13 30-30 30z m-223 0c-17 0-30-13-30-30l0-291c0-17 13-31 30-31l95 0c17 0 31 14 31 31l0 291c0 17-14 30-31 30z"/>
<glyph glyph-name="telegram" unicode="&#74;" d="M256 511c-141 0-256-115-256-256 0-141 115-256 256-256 141 0 256 115 256 256 0 141-115 256-256 256z m-89-286l-65 21c0 0-10 4-11 11 0 8 12 12 12 12l256 101c0 0 21 9 21-6l-45-231c0 0-7-16-24-8l-65 50-42-38c0 0-3-3-7-1l9 72c0 0 117 105 121 110 5 4 4 5 4 5 0 5-9 0-9 0z"/>
</font>
</defs>
</svg>
