<svg width="128" height="128" viewBox="0 0 128 128" xmlns="http://www.w3.org/2000/svg">
    <path d="M29.221 42.06c18.993-18.747 49.788-18.747 68.78 0l2.287 2.256c.95.937.95 2.457 0 3.394l-7.82 7.718a1.227 1.227 0 0 1-1.72 0l-3.145-3.104c-13.25-13.078-34.733-13.078-47.983 0l-3.369 3.325a1.227 1.227 0 0 1-1.72 0l-7.819-7.718a2.378 2.378 0 0 1 0-3.395l2.51-2.476zm85.138 15.65l6.932 6.926a2.419 2.419 0 0 1 0 3.423L90.036 99.29a2.423 2.423 0 0 1-3.425 0L64.428 77.124a.606.606 0 0 0-.856 0L41.39 99.292a2.423 2.423 0 0 1-3.425 0L6.709 68.058a2.419 2.419 0 0 1 0-3.423l6.932-6.926a2.423 2.423 0 0 1 3.425 0L39.25 79.876a.606.606 0 0 0 .856 0l22.182-22.167a2.423 2.423 0 0 1 3.425 0l22.183 22.167c.237.236.62.236.856 0l22.183-22.167a2.423 2.423 0 0 1 3.425 0z" fill="#3B99FC"/>
</svg>
